<svg xmlns="http://www.w3.org/2000/svg" fill="none" viewBox="0 0 1500 1500"><g filter="url(#a)"><path fill="#F74344" d="M53.5898 1039.45H91.5483L134.314 1120.96L150.531 1156.96H151.536C149.795 1139.63 146.8 1116.67 146.8 1097.35V1039.45H182.103V1203.32H144.127L101.379 1121.6L85.1621 1085.82H84.1575C85.8976 1103.9 88.8934 1125.84 88.8934 1145.16V1203.32H53.5898V1039.45Z"/><path fill="#F74344" d="M213.047 1120.67C213.047 1067.13 243.274 1036.43 287.475 1036.43C331.676 1036.43 361.903 1067.34 361.903 1120.67C361.903 1174.22 331.676 1206.33 287.475 1206.33C243.274 1206.33 213.047 1174.22 213.047 1120.67ZM323.944 1120.67C323.944 1087.81 309.845 1068.42 287.475 1068.42C265.123 1068.42 251.005 1087.81 251.005 1120.67C251.005 1153.54 265.105 1174.35 287.475 1174.35C309.827 1174.35 323.944 1153.54 323.944 1120.67Z"/><path fill="#F74344" d="M417.801 1070.52H372.703V1039.45H499.961V1070.52H454.863V1203.32H417.819V1070.52H417.801Z"/><path fill="#F74344" d="M575.844 1039.45H679.261V1070.52H612.887V1108.51H669.592V1139.58H612.887V1203.32H575.844V1039.45Z"/><path fill="#F74344" d="M697.34 1120.67C697.34 1067.13 727.567 1036.43 771.768 1036.43C815.969 1036.43 846.196 1067.34 846.196 1120.67C846.196 1174.22 815.969 1206.33 771.768 1206.33C727.567 1206.35 697.34 1174.22 697.34 1120.67ZM808.219 1120.67C808.219 1087.81 794.12 1068.42 771.75 1068.42C749.398 1068.42 735.28 1087.81 735.28 1120.67C735.28 1153.54 749.38 1174.35 771.75 1174.35C794.12 1174.35 808.219 1153.54 808.219 1120.67Z"/><path fill="#F74344" d="M876.152 1127.38V1039.45H913.196V1131.17C913.196 1163.26 923.313 1174.34 941.647 1174.34C960.07 1174.34 970.69 1163.26 970.69 1131.17V1039.45H1006.41V1127.38C1006.41 1182.4 984.036 1206.35 941.647 1206.35C899.258 1206.35 876.152 1182.4 876.152 1127.38Z"/><path fill="#F74344" d="M1044.28 1039.45H1082.24L1125 1120.96L1141.22 1156.96H1142.22C1140.48 1139.63 1137.49 1116.67 1137.49 1097.35V1039.45H1172.79V1203.32H1134.81L1092.07 1121.6L1075.85 1085.82H1074.85C1076.59 1103.9 1079.58 1125.84 1079.58 1145.16V1203.32H1044.28V1039.45Z"/><path fill="#F74344" d="M1211.5 1039.45H1257.84C1307.89 1039.45 1340.14 1064.34 1340.14 1120.67C1340.14 1177 1307.89 1203.32 1259.92 1203.32H1211.52V1039.45H1211.5ZM1255.58 1173.5C1283.38 1173.5 1302.17 1159.87 1302.17 1120.69C1302.17 1081.51 1283.38 1069.3 1255.58 1069.3H1248.55V1173.52H1255.58V1173.5Z"/><path fill="#F74344" d="M1372.29 1183.12C1372.29 1169.95 1381.77 1159.8 1394.6 1159.8C1407.41 1159.8 1416.92 1169.95 1416.92 1183.12C1416.92 1196.19 1407.43 1206.35 1394.6 1206.35C1381.79 1206.35 1372.29 1196.19 1372.29 1183.12ZM1377.33 1068.27L1376.09 1034.87H1413.13L1411.89 1068.27L1406.75 1145.16H1382.47L1377.33 1068.27Z"/><path fill="#F74344" d="M279.529 584.213C279.529 550.758 282.417 497.946 284.229 464.49H280.605C266.146 494.519 249.858 523.078 233.588 553.825L129.058 714.413H449.517V795.066H26V724.172L253.858 367.549H377.187V942.989H279.529V584.213Z"/><path fill="#F74344" d="M1304.01 584.213C1304.01 550.758 1306.9 497.946 1308.71 464.49H1305.09C1290.63 494.519 1274.34 523.078 1258.07 553.825L1153.54 714.413H1474V795.066H1050.46V724.172L1278.32 367.549H1401.65V942.989H1303.99V584.213H1304.01Z"/><path fill="#F74344" d="M1038.41 648.524C1038.41 733.984 1000.69 810.619 940.951 862.731C891.027 906.268 825.748 932.674 754.262 932.674C718.223 932.674 683.709 925.965 651.993 913.713C545.58 872.633 470.094 769.396 470.094 648.506C470.094 491.578 597.316 364.356 754.244 364.356C911.172 364.356 1038.41 491.596 1038.41 648.524Z"/><path fill="#FF7878" d="M496.731 789.181L569.742 720.027L520.787 691.881C520.787 691.881 482.577 721.211 496.731 789.181Z"/><path fill="#fff" d="M940.95 862.731C891.027 906.268 825.747 932.674 754.261 932.674C718.222 932.674 683.708 925.965 651.992 913.713C648.871 857.869 618.698 750.542 618.698 750.542L571.519 787.8L492.266 688.707C492.266 688.707 522.349 631.607 543.768 597.578C565.187 563.494 611.846 534.935 611.846 534.935L675.313 506.395C675.313 506.395 730.026 491.811 792.668 491.811C855.257 491.811 895.673 579.316 908.391 634.818C921.056 690.285 880.64 722.79 880.64 722.79L940.95 862.731Z"/><path fill="#FFB6AE" d="M518.635 559.727L510.886 477.567C510.886 477.567 504.553 446.946 530.511 433.079C556.468 419.212 561.419 473.782 561.419 473.782L550.871 491.344L556.576 507.399C556.576 507.399 589.422 541.286 560.235 579.926C560.235 579.926 542.333 746.218 523.73 764.821C505.128 783.423 486.238 806.134 466.326 786.222C446.414 766.31 442.539 745.178 447.311 718.431C452.029 691.684 518.635 559.727 518.635 559.727Z"/><path fill="#FF7878" d="M618.535 542.775C618.535 545.448 625.316 586.761 665.14 583.801C704.964 580.841 732.321 553.771 738.564 519.903C740.896 507.202 721.127 512.351 713.108 506.126C699.744 495.757 693.986 478.877 693.986 478.877L618.535 542.775Z"/><path fill="#FFB6AE" d="M705.271 491.828C703.028 498.806 700.373 505.013 697.36 510.449C682.184 538.02 658.576 547.241 644.925 551.654C628.582 557.018 599.468 544.855 585.171 530.558C570.927 516.315 553.419 473.566 552.199 469.656C521.004 368.607 584.005 359.063 584.005 359.063L682.399 354.632C682.399 354.632 691.942 379.585 699.441 409.633C706.526 438.137 711.782 471.198 705.271 491.828Z"/><path fill="#FF7878" d="M705.271 491.828C703.029 498.807 700.374 505.013 697.36 510.449C687.619 504.852 673.753 491.918 673.753 463.324C673.753 424.737 631.686 431.303 634.395 409.759C635.274 402.78 640.369 397.13 646.844 394.403C658.774 389.38 680.48 384.178 690.794 406.494C692.05 409.202 696.66 408.126 699.459 409.615C706.527 438.138 711.783 471.199 705.271 491.828Z" opacity=".44"/><path stroke="#F2807E" stroke-linecap="round" stroke-linejoin="round" stroke-miterlimit="10" stroke-width="6.6" d="M592.254 424.684C593.33 428.738 605.206 467.002 605.206 467.002C605.206 467.002 598.784 494.968 618.714 492.923"/><path fill="#F74344" d="M588.346 477.567C588.346 477.567 589.404 443.394 624.815 460.525C657.589 476.383 621.353 436.541 621.353 436.541L578.246 444.273L588.346 477.567Z"/><path fill="#231F20" d="M546.03 453.799C546.03 453.799 534.746 403.427 561.331 390.744C596.204 374.097 643.527 367.818 661.089 375.639C678.651 383.461 688.015 435.555 688.015 435.555C688.015 435.555 705.81 398.565 726.494 419.231C726.494 419.231 725.041 380.393 715.533 354.633C715.533 354.633 741.67 375.639 733.759 358.992C725.848 342.345 690.257 297.964 633.535 306.683C633.535 306.683 646.846 294 637.984 294C629.122 294 521.023 311.903 531.661 374.061C531.661 374.043 525.615 416.163 546.03 453.799Z"/><path fill="#FFB6AE" d="M643.058 405.651C643.058 405.651 668.602 387.317 693.968 392.071C719.333 396.825 748.269 445.367 748.269 445.367L756.197 486.411C756.197 486.411 905.753 627.751 910.632 661.799C915.512 695.846 915.117 716.063 897.286 733.895C879.455 751.726 829.764 726.45 818.014 699.022C808.345 676.455 717.342 504.816 717.342 504.816C717.342 504.816 684.406 497.874 684.406 453.781C684.406 409.687 623.289 441.116 643.058 405.651Z"/><path fill="#F74344" d="M556.447 498.484C578.332 498.484 596.074 480.742 596.074 458.857C596.074 436.972 578.332 419.23 556.447 419.23C534.562 419.23 516.82 436.972 516.82 458.857C516.82 480.742 534.562 498.484 556.447 498.484Z"/><path fill="#231F20" d="M589.401 458.858C589.401 459.414 589.401 459.97 589.311 460.49C588.522 477.945 574.081 491.829 556.429 491.829C549.774 491.829 543.621 489.874 538.455 486.43C535.979 484.851 533.701 482.932 531.799 480.707C528.822 477.407 526.543 473.442 525.18 469.119C524.391 466.876 523.924 464.562 523.691 462.141C523.548 461.064 523.512 460.006 523.512 458.876C523.512 440.668 538.222 425.904 556.429 425.904C560.197 425.904 563.838 426.55 567.193 427.716C570.17 428.703 572.969 430.138 575.48 432.003C581.436 436.201 585.921 442.336 588.002 449.512C588.934 452.436 589.401 455.593 589.401 458.858Z"/><path fill="#fff" d="M589.399 458.858C589.399 459.414 589.399 459.97 589.309 460.49C575.478 467.845 553.073 479.577 538.453 486.43C535.977 484.851 533.699 482.931 531.797 480.707C539.206 472.922 549.718 463.199 553.737 459.198C558.203 454.732 540.605 462.14 525.196 469.119C524.407 466.876 523.94 464.562 523.707 462.14C538.614 450.086 558.58 434.479 567.209 427.734C570.186 428.721 572.985 430.156 575.496 432.021C570.007 438.031 562.742 447.018 571.496 442.874C583.371 437.188 561.988 465.369 566.132 465.369C568.733 465.369 580.053 456.239 588.018 449.53C588.932 452.436 589.399 455.593 589.399 458.858Z" opacity=".32"/><path fill="#F74344" d="M651.47 480.438C673.356 480.438 691.097 462.696 691.097 440.811C691.097 418.926 673.356 401.184 651.47 401.184C629.585 401.184 611.844 418.926 611.844 440.811C611.844 462.696 629.585 480.438 651.47 480.438Z"/><path fill="#231F20" d="M684.424 440.829C684.424 441.385 684.424 441.941 684.335 442.461C683.545 459.915 669.105 473.8 651.453 473.8C644.798 473.8 638.644 471.845 633.478 468.4C631.003 466.822 628.724 464.902 626.823 462.678C623.845 459.377 621.567 455.413 620.203 451.09C619.414 448.847 618.948 446.533 618.715 444.111C618.571 443.035 618.535 441.977 618.535 440.846C618.535 422.639 633.245 407.875 651.453 407.875C655.22 407.875 658.862 408.521 662.216 409.687C665.194 410.673 667.992 412.109 670.504 413.974C676.459 418.172 680.944 424.307 683.025 431.482C683.958 434.389 684.424 437.564 684.424 440.829Z"/><path fill="#fff" d="M684.422 440.829C684.422 441.385 684.422 441.941 684.333 442.461C670.502 449.816 648.096 461.548 633.476 468.401C631.001 466.822 628.722 464.903 626.821 462.678C634.23 454.893 644.742 445.17 648.76 441.17C653.227 436.703 635.629 444.112 620.219 451.09C619.43 448.847 618.964 446.533 618.73 444.112C633.638 432.057 653.603 416.45 662.232 409.705C665.21 410.692 668.008 412.127 670.52 413.992C665.03 420.002 657.765 428.989 666.519 424.845C678.395 419.159 657.012 447.341 661.156 447.341C663.757 447.341 675.076 438.21 683.041 431.501C683.956 434.389 684.422 437.564 684.422 440.829Z" opacity=".32"/><path fill="#FF7878" d="M621.441 512.459C621.441 512.459 649.39 503.543 649.39 512.459C649.39 521.374 629.765 528.801 621.441 512.459Z"/></g><defs><filter id="a" width="1508" height="1508" x="-4" y="0" color-interpolation-filters="sRGB" filterUnits="userSpaceOnUse"><feFlood flood-opacity="0" result="BackgroundImageFix"/><feColorMatrix in="SourceAlpha" result="hardAlpha" values="0 0 0 0 0 0 0 0 0 0 0 0 0 0 0 0 0 0 127 0"/><feOffset dy="4"/><feGaussianBlur stdDeviation="2"/><feComposite in2="hardAlpha" operator="out"/><feColorMatrix values="0 0 0 0 0 0 0 0 0 0 0 0 0 0 0 0 0 0 0.25 0"/><feBlend in2="BackgroundImageFix" result="effect1_dropShadow_918_45341"/><feBlend in="SourceGraphic" in2="effect1_dropShadow_918_45341" result="shape"/></filter></defs></svg>